<svg width="24" height="28" viewBox="0 0 24 28" fill="none" xmlns="http://www.w3.org/2000/svg">
<path d="M1.1354 27.4793C1.63132 27.8264 2.44046 28 3.56281 28H10.2186C12.124 28 13.8989 27.6395 15.5432 26.9186C17.2137 26.1709 18.6754 25.1562 19.9282 23.8745C21.2072 22.5661 22.199 21.0574 22.9038 19.3485C23.6346 17.6395 24 15.8104 24 13.8611C24 11.9653 23.6346 10.1762 22.9038 8.49399C22.199 6.81175 21.2072 5.34312 19.9282 4.08812C18.6754 2.80641 17.2268 1.80507 15.5824 1.08411C13.938 0.363151 12.1892 0.00267016 10.3361 0.00267016H3.60196C2.4013 -0.0240318 1.55302 0.149533 1.0571 0.523365C0.561175 0.870495 0.261011 1.32443 0.156607 1.88518C0.0522023 2.44593 0 3.02003 0 3.60748V15.8065H7.16476V7.33244H10.2969C11.4976 7.33244 12.5938 7.63952 13.5856 8.25367C14.5775 8.84112 15.3605 9.64219 15.9347 10.6569C16.5351 11.6716 16.8352 12.7931 16.8352 14.0214C16.8352 15.2497 16.5351 16.3712 15.9347 17.3858C15.3605 18.3738 14.5775 19.1749 13.5856 19.7891C12.5938 20.3765 11.5106 20.6702 10.3361 20.6702L0 20.673V24.3151C0 24.9559 0.0652528 25.5567 0.195759 26.1175C0.326264 26.6782 0.639478 27.1322 1.1354 27.4793Z" fill="white"/>
</svg>
