<svg id="Capa_1" enable-background="new 0 0 436.67 436.67" fill="white" height="512" viewBox="0 0 436.67 436.67" width="512" xmlns="http://www.w3.org/2000/svg"><g><path d="m349.336 65.5h-174.668c-21.173.005-41.609 7.773-57.44 21.833h-95.395c-12.058.001-21.833 9.776-21.833 21.834s9.775 21.833 21.833 21.833h68.745c-3.254 14.312-4.348 29.031-3.244 43.667h-43.667c-12.058 0-21.833 9.775-21.833 21.833s9.775 21.833 21.833 21.833h43.667v43.667h-21.834c-12.058 0-21.833 9.775-21.833 21.833s9.775 21.833 21.833 21.833h24.919c9.855 38.495 44.513 65.44 84.249 65.5h174.668c48.22.013 87.321-39.066 87.334-87.286 0-.016 0-.032 0-.048v-130.998c-.054-48.21-39.123-87.279-87.334-87.334zm-174.668 43.667h174.668c18.019.004 34.17 11.118 40.61 27.947l-133.402 72.706-124.233-67.684c4.935-19.372 22.366-32.94 42.357-32.969zm218.335 174.668c-.071 24.087-19.58 43.596-43.667 43.667h-174.668c-24.087-.071-43.596-19.58-43.667-43.667v-92.574l115.063 62.662c6.547 3.506 14.413 3.506 20.96 0l125.979-68.776z"/></g></svg>